<svg xmlns="http://www.w3.org/2000/svg" viewBox="0 0 1024 1024">
  <path fill="currentColor" d="M682.7 547.6c-.6-64.1 28.1-112.7 85.6-147.8-32.1-46.7-80.6-72.6-145.4-77.5-61-4.8-127.7 35.6-151.9 35.6-25.5 0-86.9-33.9-134.7-33.9-99.2 1.5-202.3 79.8-202.3 239.5 0 47.9 8.7 97.3 26.2 148.2 23.4 64.1 107.8 221.1 195.8 218.6 45.9-1.2 78.3-32.4 137.9-32.4 58.1 0 88.9 32.4 137.3 32.4 88.6-1.5 167.4-144.6 190.2-209.1-119.6-56.4-138.7-165.3-138.7-173.6zM610.8 240c46.4-56.3 42.1-107.1 40.7-125.4-40.7 2.4-88.2 27.1-115.8 58.4-29.9 33.6-47.7 75.1-43.9 123.4 43.7 3.3 84.5-19.2 119-56.4z"></path>
</svg>
